<?xml version="1.0" encoding="UTF-8"?>
<!DOCTYPE svg PUBLIC "-//W3C//DTD SVG 1.1//EN" "http://www.w3.org/Graphics/SVG/1.1/DTD/svg11.dtd">
<svg xmlns="http://www.w3.org/2000/svg" version="1.1" width="1920px" height="1080px" style="shape-rendering:geometricPrecision; text-rendering:geometricPrecision; image-rendering:optimizeQuality; fill-rule:evenodd; clip-rule:evenodd" xmlns:xlink="http://www.w3.org/1999/xlink">
<g><path style="opacity:1" fill="#fac334" d="M -0.5,-0.5 C 639.5,-0.5 1279.5,-0.5 1919.5,-0.5C 1919.5,51.8333 1919.5,104.167 1919.5,156.5C 1863.48,184.512 1806.48,210.345 1748.5,234C 1670.73,265.887 1592.73,297.22 1514.5,328C 1469.42,347.139 1424.42,366.472 1379.5,386C 1299.96,419.624 1217.96,445.624 1133.5,464C 1012.8,489.916 892.136,489.916 771.5,464C 697.535,446.9 625.202,424.567 554.5,397C 470.42,362.862 386.42,328.529 302.5,294C 201.282,258.317 100.282,222.15 -0.5,185.5C -0.5,123.5 -0.5,61.5 -0.5,-0.5 Z"/></g>
<g><path style="opacity:1" fill="#fac334" d="M 1919.5,899.5 C 1919.5,959.5 1919.5,1019.5 1919.5,1079.5C 1279.5,1079.5 639.5,1079.5 -0.5,1079.5C -0.5,1009.17 -0.5,938.833 -0.5,868.5C 110.825,790.318 230.158,725.818 357.5,675C 383.327,664.544 409.994,657.21 437.5,653C 469.21,650.768 499.877,655.435 529.5,667C 564.426,680.96 597.426,698.293 628.5,719C 668.167,746 707.833,773 747.5,800C 782.066,823.287 818.732,842.954 857.5,859C 890.491,871.874 924.491,875.874 959.5,871C 979.058,867.259 997.724,860.925 1015.5,852C 1039.69,839.081 1062.69,824.414 1084.5,808C 1107.75,789.874 1130.42,771.04 1152.5,751.5C 1153.76,752.016 1154.76,751.35 1155.5,749.5C 1197.26,709.569 1241.26,672.402 1287.5,638C 1317.17,616.164 1349.84,600.164 1385.5,590C 1409.57,585.086 1433.57,585.419 1457.5,591C 1488.21,601.187 1517.88,613.854 1546.5,629C 1664.45,693.643 1774.11,769.977 1875.5,858C 1890.64,871.306 1905.31,885.139 1919.5,899.5 Z"/></g>
<g><path style="opacity:1" fill="#9b6c70" d="M 1155.5,749.5 C 1154.76,751.35 1153.76,752.016 1152.5,751.5C 1152.97,750.094 1153.97,749.427 1155.5,749.5 Z"/></g>
</svg>
